<?xml version="1.0" standalone="no"?>
<!DOCTYPE svg PUBLIC "-//W3C//DTD SVG 20010904//EN"
 "http://www.w3.org/TR/2001/REC-SVG-20010904/DTD/svg10.dtd">
<svg version="1.0" xmlns="http://www.w3.org/2000/svg"
 width="869.000000pt" height="869.000000pt" viewBox="0 0 869.000000 869.000000"
 preserveAspectRatio="xMidYMid meet">

<g transform="translate(0.000000,869.000000) scale(0.100000,-0.100000)"
fill="#000000" stroke="none">
<path d="M4630 8532 c-88 -87 -211 -143 -355 -161 -44 -5 -156 -12 -250 -16
-93 -3 -217 -13 -275 -21 -332 -47 -634 -191 -879 -419 -51 -48 -62 -55 -56
-35 9 31 55 120 91 179 l26 43 -23 -7 c-13 -4 -62 -25 -109 -47 -118 -57 -236
-175 -302 -303 -59 -114 -97 -246 -105 -357 -3 -49 -10 -88 -14 -88 -21 0 -88
74 -113 126 -68 139 -34 332 90 505 43 58 33 62 -55 18 -70 -35 -146 -105
-191 -175 -89 -141 -94 -345 -12 -497 14 -26 22 -50 18 -54 -3 -4 -57 -9 -119
-11 -137 -5 -214 11 -327 68 -44 22 -80 38 -80 35 0 -3 11 -27 24 -53 71 -140
175 -214 357 -256 27 -6 26 -6 -36 -70 -43 -44 -75 -89 -100 -140 -31 -65 -44
-81 -101 -121 -106 -76 -226 -201 -293 -305 -115 -179 -163 -336 -165 -540 -1
-131 13 -205 55 -299 25 -55 28 -50 52 77 23 123 83 238 164 319 36 35 67 62
69 61 2 -2 -3 -40 -11 -83 -8 -44 -15 -118 -15 -165 -1 -176 -29 -297 -90
-385 -42 -61 -114 -129 -167 -157 -24 -13 -43 -26 -43 -29 0 -4 14 -9 31 -13
86 -17 181 2 261 53 l46 29 6 -31 c37 -217 0 -374 -116 -489 -54 -52 -50 -58
35 -58 60 0 122 27 173 75 21 20 37 29 39 22 2 -7 18 -49 34 -95 l30 -83 -27
-10 c-37 -14 -70 -47 -93 -91 -17 -34 -19 -62 -19 -340 0 -314 9 -436 49 -645
26 -134 75 -303 111 -380 90 -193 237 -325 407 -365 38 -9 53 -18 57 -33 3
-11 21 -114 41 -230 53 -312 117 -497 230 -661 l45 -66 0 -549 0 -549 65 -29
c119 -54 104 -109 107 418 l3 461 114 -128 c103 -114 212 -232 471 -507 46
-49 185 -193 309 -319 l224 -230 205 -58 c114 -32 214 -58 223 -58 10 0 183
47 386 105 677 194 625 166 867 469 82 103 112 135 115 121 2 -11 1 -104 -1
-207 -2 -105 0 -188 5 -188 5 0 85 33 178 73 l169 72 0 558 0 559 54 82 c107
160 148 279 211 619 25 133 47 247 49 253 2 5 27 16 56 22 153 35 308 167 390
332 60 118 123 375 155 630 21 165 32 646 16 719 -14 66 -41 106 -90 131 l-38
19 23 82 c13 45 24 88 24 95 0 21 8 17 41 -20 42 -49 110 -79 178 -80 85 -1
90 8 34 63 -27 26 -63 75 -81 108 -31 59 -64 161 -56 175 3 4 20 0 39 -8 60
-25 231 -10 242 21 2 6 -18 21 -44 35 -69 37 -141 114 -177 189 -27 59 -31 78
-34 178 -2 62 -2 120 2 128 4 12 20 6 83 -27 70 -38 85 -42 163 -46 56 -2 98
1 124 10 l38 14 -67 39 c-121 71 -210 195 -265 370 -17 55 -45 137 -60 183
-16 45 -28 82 -26 82 1 0 24 -7 50 -16 71 -24 212 -15 288 19 51 23 158 109
158 127 0 4 -23 3 -52 -3 -68 -14 -171 4 -252 43 -83 39 -152 110 -278 286
-59 82 -117 161 -128 175 l-20 27 62 -20 c124 -39 267 -32 333 16 18 13 17 15
-25 26 -71 19 -177 79 -238 134 -30 28 -107 116 -170 196 -191 239 -299 337
-502 450 -52 30 -97 55 -99 56 -2 2 15 24 38 50 41 47 93 143 106 197 l7 28
-60 -31 c-113 -57 -246 -73 -371 -45 l-68 16 -7 71 c-7 74 -44 174 -76 203
-16 15 -18 12 -23 -34 -3 -27 -15 -67 -26 -89 l-20 -40 -61 25 c-33 13 -98 34
-144 46 l-84 21 -4 126 c-3 120 -5 129 -37 193 -19 37 -37 67 -41 67 -4 0 -13
-26 -19 -57 -21 -106 -102 -212 -199 -259 -56 -28 -167 -29 -310 -4 -68 11
-160 24 -203 27 l-80 6 44 46 c83 85 131 191 125 274 l-3 44 -35 -35z m-465
-402 c17 -7 15 -9 -12 -9 -46 -1 -287 -64 -368 -96 -266 -105 -494 -284 -581
-457 l-36 -72 61 56 c68 61 139 103 245 142 90 34 101 33 40 -5 -65 -42 -215
-189 -269 -264 -120 -168 -173 -382 -145 -585 24 -177 86 -298 219 -430 107
-107 216 -166 382 -210 l113 -29 -53 53 -54 54 100 -49 c61 -31 185 -77 319
-119 l219 -69 149 55 c82 30 153 54 157 54 5 0 32 -18 61 -40 67 -52 194 -113
278 -135 36 -9 117 -19 180 -22 235 -12 441 62 606 219 l54 51 48 -40 c105
-88 184 -225 213 -373 17 -83 15 -381 -3 -475 l-13 -70 46 -61 c80 -106 132
-233 169 -414 18 -86 24 -159 30 -405 7 -255 12 -311 29 -375 20 -73 20 -79 6
-225 -18 -168 -94 -708 -156 -1095 -96 -605 -132 -685 -482 -1085 -578 -658
-673 -751 -834 -814 -120 -47 -188 -53 -560 -49 -337 4 -351 5 -444 30 -174
47 -222 82 -434 318 -87 96 -206 227 -265 290 -183 197 -380 422 -426 487 -60
85 -125 219 -163 335 -36 113 -110 549 -201 1179 -78 547 -77 534 -50 649 18
79 23 142 30 375 7 218 13 301 29 375 43 202 83 299 170 414 l50 66 -15 82
c-34 196 -27 397 20 522 31 82 96 179 136 203 33 19 40 37 13 29 -10 -2 -47
-7 -83 -11 -36 -4 -112 -17 -170 -31 -249 -58 -417 -143 -607 -306 -51 -43
-93 -76 -93 -73 0 3 14 34 31 68 108 212 290 369 515 441 181 59 376 70 707
41 184 -16 401 -24 389 -14 -4 3 -45 35 -92 71 -105 81 -253 232 -309 316 -78
116 -112 215 -131 381 -27 237 46 486 204 695 36 47 64 86 62 86 -1 0 -27 -12
-57 -26 -147 -70 -355 -235 -446 -355 -20 -27 -38 -47 -40 -45 -8 8 49 140 93
218 90 155 270 307 489 413 183 88 320 132 494 160 96 15 405 18 436 5z m620
-151 c66 -6 161 -14 210 -18 l90 -7 -65 -32 c-36 -17 -144 -54 -240 -81 -184
-53 -280 -87 -395 -142 l-70 -34 190 0 c120 0 212 -5 250 -13 86 -19 269 -80
291 -98 18 -13 17 -14 -7 -8 -45 10 -258 -16 -374 -46 -233 -59 -406 -147
-551 -282 l-68 -63 33 60 c81 144 173 247 276 309 33 20 57 36 53 36 -3 0 -53
-16 -110 -36 -224 -78 -362 -195 -470 -398 -42 -80 -48 -67 -19 46 33 127 99
256 174 335 17 18 28 35 26 37 -11 12 -144 -80 -201 -138 -136 -138 -208 -317
-208 -521 0 -102 19 -203 49 -266 12 -23 19 -44 17 -46 -6 -7 -72 82 -114 152
-61 104 -77 174 -76 335 0 119 4 145 27 215 76 227 263 438 497 559 187 96
398 150 605 155 33 0 114 -4 180 -10z m718 -93 l72 -22 -33 -18 c-47 -25 -169
-54 -258 -62 l-77 -7 47 43 c26 24 55 56 64 73 16 27 20 28 65 22 27 -3 81
-16 120 -29z m333 -497 c208 -29 394 -121 553 -273 127 -123 207 -256 237
-395 18 -88 18 -279 -1 -360 -31 -132 -148 -312 -249 -384 l-31 -22 23 33 c91
127 130 311 111 522 -10 119 -29 188 -80 305 -111 253 -345 456 -637 555 -81
28 -84 30 -45 30 23 0 77 -5 119 -11z m554 -86 c0 -2 -18 10 -40 27 -22 17
-40 34 -40 37 0 2 18 -10 40 -27 22 -17 40 -34 40 -37z m-1120 11 c147 -26
260 -63 390 -130 69 -36 136 -74 150 -85 l25 -21 -40 6 c-281 41 -493 25 -722
-55 -291 -101 -585 -351 -699 -594 -38 -81 -39 -80 -19 20 27 128 97 278 182
386 87 112 265 233 448 306 l60 24 -85 -6 c-203 -15 -395 -83 -536 -189 -77
-57 -177 -163 -228 -240 -46 -69 -95 -181 -96 -215 0 -13 -3 -21 -7 -18 -11
12 -3 115 17 190 25 98 60 174 121 263 81 117 174 196 304 260 227 110 473
143 735 98z m515 -460 c86 -16 265 -95 298 -132 18 -20 18 -20 -25 -10 -63 14
-314 3 -446 -21 -141 -25 -278 -62 -370 -100 -40 -17 -72 -28 -72 -26 0 11
181 161 225 187 32 18 41 27 25 24 -221 -46 -335 -94 -465 -194 l-60 -47 44
54 c60 72 116 117 213 174 186 108 385 136 633 91z m-3303 -74 c67 -21 169
-81 203 -120 l20 -23 -20 7 c-97 29 -250 34 -358 10 -77 -17 -224 -83 -251
-113 -16 -18 -15 -18 36 -4 83 22 330 12 492 -21 71 -14 131 -28 134 -31 3 -3
-12 -5 -32 -5 -94 0 -327 -62 -448 -119 -95 -45 -273 -165 -340 -229 -49 -46
-59 -52 -53 -32 19 66 142 237 223 311 31 29 49 50 40 46 -122 -45 -505 -232
-569 -278 -40 -28 -41 -24 -8 33 133 225 367 431 609 534 138 58 216 67 322
34z m3093 -406 c-22 -19 -62 -48 -88 -63 -44 -26 -46 -29 -25 -35 13 -3 37 -6
55 -6 18 0 67 -5 110 -12 l78 -11 -79 -38 c-211 -99 -462 -114 -622 -38 l-49
23 50 3 c185 10 385 75 545 177 69 45 76 45 25 0z m1255 -506 c33 -62 60 -162
60 -218 0 -26 -10 -6 -39 80 -22 63 -53 147 -70 185 -31 68 -31 69 -6 40 14
-16 39 -56 55 -87z m-186 -47 c61 -106 116 -271 116 -349 0 -34 -2 -32 -62 53
-35 49 -105 133 -157 187 l-94 99 24 17 c13 9 42 33 64 54 l40 38 18 -22 c10
-12 33 -47 51 -77z m-4335 -48 c-19 -15 -74 -65 -122 -111 -94 -86 -228 -192
-279 -218 l-30 -16 33 49 c79 114 218 234 343 294 44 22 82 37 84 34 2 -2 -11
-17 -29 -32z m4094 -198 c72 -74 150 -190 212 -314 26 -52 58 -112 71 -133 71
-112 -107 60 -188 182 -31 47 -90 150 -132 229 -81 156 -80 157 37 36z m-4021
53 c-16 -24 -57 -96 -91 -162 -90 -172 -156 -261 -270 -362 l-54 -48 68 129
c92 176 172 290 278 396 49 49 91 89 93 89 3 0 -8 -19 -24 -42z m-346 -1620
c-8 -40 -86 -491 -86 -498 0 -3 63 -57 139 -120 131 -108 139 -117 143 -155 3
-22 13 -95 23 -163 10 -67 15 -125 12 -128 -4 -4 -31 5 -60 20 -64 31 -145
113 -180 182 -41 82 -105 292 -126 419 -19 112 -51 359 -51 397 0 21 28 37
105 59 87 25 89 24 81 -13z m4705 11 c94 -32 92 -29 84 -133 -18 -256 -46
-424 -102 -601 -50 -158 -120 -260 -217 -315 -49 -29 -86 -38 -86 -22 0 4 9
59 20 122 11 63 20 118 20 123 0 4 6 7 14 7 7 0 19 7 26 15 7 8 17 12 24 8 6
-3 2 4 -9 16 -18 21 -20 21 -32 5 -7 -10 -13 -13 -13 -6 0 6 9 17 20 25 12 8
20 19 18 24 -4 13 131 125 142 118 5 -3 7 0 5 7 -3 8 7 21 22 30 16 9 38 27
51 40 l22 25 -15 118 c-9 65 -23 153 -31 196 -15 72 -15 82 1 128 9 28 14 55
10 61 -10 15 -35 12 -29 -4 3 -8 1 -17 -5 -21 -6 -3 -11 0 -11 9 0 8 -3 21 -6
30 -8 21 -1 20 77 -5z m-54 -71 c-3 -8 -6 -5 -6 6 -1 11 2 17 5 13 3 -3 4 -12
1 -19z m-182 -708 c3 -5 1 -10 -4 -10 -6 0 -11 5 -11 10 0 6 2 10 4 10 3 0 8
-4 11 -10z"/>
<path d="M2851 4839 c-60 -26 -200 -166 -269 -266 -30 -46 -53 -86 -49 -89 3
-4 66 8 139 27 159 40 240 41 547 9 195 -20 246 -30 155 -30 -62 0 -212 -24
-284 -46 -85 -25 -168 -71 -224 -124 -45 -43 -95 -110 -82 -110 3 0 34 22 69
49 118 89 271 131 476 131 155 0 254 -22 344 -77 62 -37 185 -151 224 -207
l20 -29 27 79 c28 84 33 151 15 187 -6 12 -30 41 -52 65 -39 40 -40 42 -17 42
14 0 49 -7 79 -15 30 -8 58 -12 63 -9 4 3 8 45 8 94 0 81 -2 91 -26 119 -49
58 -98 78 -249 100 -77 11 -232 34 -345 51 -197 29 -510 71 -520 69 -3 0 -25
-9 -49 -20z"/>
<path d="M5475 4819 c-137 -21 -335 -52 -440 -69 -104 -17 -200 -30 -213 -30
-48 0 -130 -58 -158 -112 -17 -32 -19 -131 -3 -160 9 -17 6 -26 -24 -57 -64
-66 -71 -90 -64 -226 6 -107 33 -289 55 -369 8 -28 9 -27 31 35 33 90 78 168
165 286 159 212 282 272 562 273 100 0 150 -5 215 -21 94 -24 231 -85 278
-125 50 -42 45 -23 -9 38 -114 128 -265 188 -513 205 -93 6 -98 8 -57 15 49 9
185 23 379 39 145 11 219 4 377 -41 59 -16 113 -30 120 -30 27 0 -64 128 -166
231 -114 116 -182 160 -247 158 -21 0 -150 -18 -288 -40z"/>
<path d="M3211 4359 c-81 -16 -169 -50 -228 -88 -58 -38 -140 -118 -162 -159
-10 -19 -9 -22 6 -22 10 0 35 5 55 10 29 8 51 6 109 -10 40 -11 74 -18 76 -16
2 1 -8 24 -22 49 l-26 46 60 31 c33 16 62 30 64 30 3 0 7 -20 9 -45 7 -54 43
-112 94 -151 72 -55 196 -42 261 28 29 30 53 89 53 128 0 35 3 36 45 10 33
-20 85 -86 85 -108 0 -6 -17 -20 -37 -31 l-38 -20 80 -1 c44 0 98 -3 119 -7
l39 -6 -34 63 c-73 136 -193 232 -330 265 -69 16 -207 18 -278 4z m103 -105
c20 -8 21 -38 1 -54 -23 -19 -65 -4 -65 24 0 12 3 26 7 29 8 9 36 9 57 1z
m176 -69 c10 -12 8 -21 -7 -47 -41 -70 -118 -96 -189 -62 -40 19 -50 31 -59
67 -9 36 8 35 52 -3 55 -49 137 -34 163 30 14 34 22 37 40 15z"/>
<path d="M5218 4355 c-134 -34 -232 -108 -322 -243 -25 -38 -46 -72 -46 -75 0
-5 250 -5 250 0 0 2 -18 12 -40 23 -22 11 -40 25 -40 31 0 6 4 7 10 4 5 -3 7
0 5 7 -6 15 55 92 85 108 15 8 17 6 13 -9 -6 -23 18 -81 52 -125 48 -63 155
-94 228 -67 71 27 136 120 137 193 l0 38 64 -33 c70 -35 74 -45 35 -99 -10
-15 -19 -29 -19 -32 0 -8 73 5 117 21 43 15 62 12 162 -25 27 -10 -23 58 -89
122 -124 120 -239 166 -425 172 -83 2 -138 -1 -177 -11z m90 -127 c2 -19 -2
-28 -17 -33 -26 -8 -61 11 -61 34 0 26 10 32 45 29 24 -2 31 -8 33 -30z m172
-60 c0 -28 -36 -75 -70 -93 -43 -22 -101 -19 -141 8 -42 28 -68 72 -53 87 8 8
23 1 55 -26 38 -31 48 -35 82 -31 42 6 75 29 88 64 10 27 39 20 39 -9z"/>
<path d="M4080 4289 c7 -11 14 -18 17 -15 8 8 -5 36 -17 36 -7 0 -7 -6 0 -21z"/>
<path d="M5109 4153 c-13 -16 -12 -17 4 -4 9 7 17 15 17 17 0 8 -8 3 -21 -13z"/>
<path d="M4832 2842 c-18 -28 -56 -72 -85 -97 -59 -51 -46 -59 28 -16 77 44
97 71 93 121 l-3 43 -33 -51z"/>
<path d="M3984 2855 c-17 -17 -24 -34 -22 -53 3 -26 5 -27 73 -28 50 -1 81 -8
110 -23 40 -21 99 -28 109 -12 7 10 -78 97 -119 123 -46 28 -120 24 -151 -7z"/>
<path d="M4560 2860 c-19 -10 -57 -41 -83 -68 l-48 -49 40 -7 c33 -5 51 -1 92
20 50 25 84 27 151 8 13 -4 21 3 28 21 28 73 -92 123 -180 75z"/>
<path d="M3905 2108 c-27 -5 -117 -12 -199 -16 l-150 -7 -7 -28 c-4 -16 -4
-40 1 -53 9 -24 11 -24 142 -24 91 0 149 5 183 16 76 23 193 19 313 -11 130
-31 204 -32 334 0 118 29 211 32 313 10 39 -8 122 -15 187 -15 106 0 118 2
128 19 14 26 13 64 -2 79 -8 8 -48 12 -113 13 -55 0 -136 4 -180 9 -198 24
-246 24 -332 1 -104 -27 -211 -27 -338 -1 -102 21 -197 24 -280 8z"/>
<path d="M4045 1648 l100 -42 179 -4 c198 -4 225 0 336 52 l75 35 -395 0 -395
0 100 -41z"/>
</g>
</svg>
